<svg xmlns="http://www.w3.org/2000/svg"><style>:root svg:not(:target){display:none}</style><svg viewBox="0 0 20 20" fill="none" id="activity"><path d="M18.33 10h-3.33l-2.5 7.5-5-15-2.5 7.5h-3.33" stroke="#71717A" stroke-width="1.5" stroke-linecap="round" stroke-linejoin="round"></path></svg><svg viewBox="0 0 26 26" fill="none" id="arrow-up"><mask id="arrow-up_0" style="mask-type:alpha" maskUnits="userSpaceOnUse" x="0" y="0" width="26" height="26"><path fill="#D9D9D9" d="M0 0h26v26h-26z"></path></mask><g mask="url(#arrow-up_0)"><path d="m13.01 8.07-10.3 10.29a1 1 0 0 1-.64.34c-.22.02-.45-.1-.7-.34-.25-.25-.37-.47-.37-.68 0-.2.12-.42.37-.67l10.5-10.5c.34-.34.72-.51 1.14-.51.42 0 .8.17 1.14.5l10.5 10.5c.22.23.33.43.35.63.01.2-.1.42-.35.67-.24.25-.47.37-.67.37-.2 0-.43-.12-.68-.37l-10.29-10.23Z" fill="#71717A"></path></g></svg><svg viewBox="0 0 38 36" fill="none" id="burger-menu"><path d="M10 10h18m-18 8h18m-18 8h18" stroke="#71717A" stroke-width="1.5" stroke-linecap="round" stroke-linejoin="round"></path></svg><svg viewBox="0 0 20 20" fill="none" id="home"><path d="m2.5 7.5 7.5-5.83 7.5 5.83v9.17a1.67 1.67 0 0 1-1.67 1.66h-11.66a1.67 1.67 0 0 1-1.67-1.66v-9.17Z" stroke="#fff" stroke-width="1.5" stroke-linecap="round" stroke-linejoin="round"></path><path d="M7.5 18.33v-8.33h5v8.33" stroke="#fff" stroke-width="1.5" stroke-linecap="round" stroke-linejoin="round"></path></svg><svg viewBox="0 0 20 20" fill="none" id="inbox"><path d="M18.33 10h-5l-1.66 2.5h-3.34l-1.66-2.5h-5" stroke="#71717A" stroke-width="1.5" stroke-linecap="round" stroke-linejoin="round"></path><path d="m4.54 4.26-2.87 5.74v5a1.67 1.67 0 0 0 1.66 1.67h13.34a1.67 1.67 0 0 0 1.66-1.67v-5l-2.87-5.74a1.67 1.67 0 0 0-1.5-.93h-7.93a1.67 1.67 0 0 0-1.49.93v0Z" stroke="#71717A" stroke-width="1.5" stroke-linecap="round" stroke-linejoin="round"></path></svg><svg viewBox="0 0 24 24" fill="none" id="more-vertical"><path d="M12 13a1 1 0 1 0 0-2 1 1 0 0 0 0 2Zm0-7a1 1 0 1 0 0-2 1 1 0 0 0 0 2Zm0 14a1 1 0 1 0 0-2 1 1 0 0 0 0 2Z" stroke="#71717A" stroke-width="1.5" stroke-linecap="round" stroke-linejoin="round"></path></svg><svg viewBox="0 0 16 16" fill="none" id="plus"><path d="M8 3.33v9.34m-4.67-4.67h9.34" stroke="#fff" stroke-width="1.5" stroke-linecap="round" stroke-linejoin="round"></path></svg><svg viewBox="0 0 20 20" fill="none" id="projects"><path d="M18.33 15.83a1.67 1.67 0 0 1-1.66 1.67h-13.34a1.67 1.67 0 0 1-1.66-1.67v-11.66a1.67 1.67 0 0 1 1.66-1.67h4.17l1.67 2.5h7.5a1.67 1.67 0 0 1 1.66 1.67v9.16Z" stroke="#6B7280" stroke-width="1.5" stroke-linecap="round" stroke-linejoin="round"></path></svg><svg viewBox="0 0 20 20" fill="none" id="search"><path d="M9.17 15.83a6.67 6.67 0 1 0 0-13.33 6.67 6.67 0 0 0 0 13.33Zm8.33 1.67-3.63-3.63" stroke="#71717A" stroke-width="1.5" stroke-linecap="round" stroke-linejoin="round"></path></svg><svg viewBox="0 0 20 20" fill="none" id="tasks"><path d="M6.67 5h10.83m-10.83 5h10.83m-10.83 5h10.83m-15-10h0m0 5h0m0 5h0" stroke="#71717A" stroke-width="1.5" stroke-linecap="round" stroke-linejoin="round"></path></svg><svg viewBox="0 0 20 20" fill="none" id="team"><path d="M14.17 17.5v-1.67a3.33 3.33 0 0 0-3.34-3.33h-6.66a3.33 3.33 0 0 0-3.34 3.33v1.67m6.67-8.33a3.33 3.33 0 1 0 0-6.67 3.33 3.33 0 0 0 0 6.67Zm11.67 8.33v-1.67a3.33 3.33 0 0 0-2.5-3.22m-3.34-10.01a3.33 3.33 0 0 1 0 6.47" stroke="#71717A" stroke-width="1.5" stroke-linecap="round" stroke-linejoin="round"></path></svg></svg>