<svg viewBox="0 0 26 26" fill="none" xmlns="http://www.w3.org/2000/svg"><mask id="a" style="mask-type:alpha" maskUnits="userSpaceOnUse" x="0" y="0" width="26" height="26"><path fill="#D9D9D9" d="M0 0h26v26h-26z"/></mask><g mask="url(#a)"><path d="m13.01 8.07-10.3 10.29a1 1 0 0 1-.64.34c-.22.02-.45-.1-.7-.34-.25-.25-.37-.47-.37-.68 0-.2.12-.42.37-.67l10.5-10.5c.34-.34.72-.51 1.14-.51.42 0 .8.17 1.14.5l10.5 10.5c.22.23.33.43.35.63.01.2-.1.42-.35.67-.24.25-.47.37-.67.37-.2 0-.43-.12-.68-.37l-10.29-10.23Z" fill="#71717A"/></g></svg>