<svg viewBox="0 0 82 31" xmlns="http://www.w3.org/2000/svg"><path d="M9.33 4.74h-7.34c0 17.52-.09 21.4-1.99 22.73v3.1h3.1c.22-4.6.04-9.13 0-23.04h3.14v23.04h3.1v-25.83Z" fill="none"/><path d="M15.54 16.27h5.31v-6.88c0-3.75-1.28-5.08-3.72-5.08-2.65 0-4.68 1.59-4.68 5.85v15.8c0 3.7 1.37 5.04 4.06 5.04 2.97 0 4.38-3.1 4.3-7.2l-.14-5.16h-.62l-.13 5.04c-.09 2.76-.66 4.4-1.99 4.4-1.24 0-2.39-.48-2.39-3.58v-8.23Zm1.28-9.04c.89 0 1.38.43 1.38 3.58v4.86h-2.66v-5.94c0-1.55.22-2.5 1.28-2.5Zm16.34-2.49h-9.2v25.83h3.1v-23.04h3v23.04h3.1v-25.83Zm7.32-4.74h-3.8v1.98h3.8v-1.98Zm1.07 0v1.98h3.8v-1.98h-3.8Zm-.62 4.3c-2.66 0-4.7 1.6-4.7 5.86v15.8c0 3.7 1.38 5.04 4.08 5.04 2.96 0 4.38-3.1 4.29-7.19l-.13-5.17h-.62l-.14 5.04c-.08 2.76-.66 4.4-1.99 4.4-1.24 0-2.39-.48-2.39-3.58v-8.23h5.31v-6.88c0-3.75-1.28-5.08-3.71-5.08Zm-1.6 11.37v-5.94c0-1.55.23-2.5 1.29-2.5.88 0 1.37.43 1.37 3.58v4.86h-2.66Zm13.89.82 4.16-11.75h-3.72l-1.02 9.86h-.48l-1.06-4.57-1.46-5.3h-3.5l4.25 12.32-4.43 13.52h3.72l1.37-11.63h.4l1.06 5.64 1.46 5.99h3.5l-4.25-14.08Zm15.53-11.75h-3.14l-3.71 20.53h-.62l.62-9.94.3-10.6h-3.18v25.84h3.14l3.67-20.54h.67l-.62 9.95-.27 10.59h3.14v-25.83Zm9.42 0v12.3h-3.23v-12.3h-3.1v25.83h3.1v-12.66h3.23v12.66h3.1v-25.83h-3.1Z" fill="#fff"/></svg>